<mxfile host="Electron" modified="2024-03-31T20:57:23.011Z" agent="Mozilla/5.0 (X11; Linux x86_64) AppleWebKit/537.36 (KHTML, like Gecko) draw.io/24.1.0 Chrome/120.0.6099.109 Electron/28.1.0 Safari/537.36" etag="tkBdEWx8qKA4AgE1_uBO" version="24.1.0" type="device">
  <diagram name="Page-1" id="mofG22DhoCsk-Dnk1MXu">
    <mxGraphModel dx="753" dy="551" grid="1" gridSize="10" guides="1" tooltips="1" connect="1" arrows="1" fold="1" page="1" pageScale="1" pageWidth="827" pageHeight="1169" math="0" shadow="0">
      <root>
        <mxCell id="0" />
        <mxCell id="1" parent="0" />
        <mxCell id="uC1nnT6X22y7bVIkocbB-3" value="Unmoved Label" style="edgeStyle=orthogonalEdgeStyle;rounded=0;orthogonalLoop=1;jettySize=auto;labelBorderColor=none;textShadow=0;align=center;verticalAlign=middle;horizontal=1;labelBackgroundColor=default;html=1;jumpStyle=none;jumpSize=7;targetPerimeterSpacing=0;sourcePerimeterSpacing=0;endSize=6;startSize=6;flowAnimation=0;shadow=0;" parent="1" source="uC1nnT6X22y7bVIkocbB-1" target="uC1nnT6X22y7bVIkocbB-2" edge="1">
          <mxGeometry relative="1" as="geometry" />
        </mxCell>
        <mxCell id="uC1nnT6X22y7bVIkocbB-1" value="" style="rounded=0;whiteSpace=wrap;html=1;" parent="1" vertex="1">
          <mxGeometry x="30" y="80" width="120" height="60" as="geometry" />
        </mxCell>
        <mxCell id="uC1nnT6X22y7bVIkocbB-2" value="" style="rounded=0;whiteSpace=wrap;html=1;" parent="1" vertex="1">
          <mxGeometry x="354" y="80" width="120" height="60" as="geometry" />
        </mxCell>
        <mxCell id="uC1nnT6X22y7bVIkocbB-4" value="x moved label" style="edgeStyle=orthogonalEdgeStyle;rounded=0;orthogonalLoop=1;jettySize=auto;html=1;" parent="1" source="uC1nnT6X22y7bVIkocbB-5" target="uC1nnT6X22y7bVIkocbB-6" edge="1">
          <mxGeometry x="-0.7059" relative="1" as="geometry">
            <mxPoint as="offset" />
          </mxGeometry>
        </mxCell>
        <mxCell id="uC1nnT6X22y7bVIkocbB-5" value="" style="rounded=0;whiteSpace=wrap;html=1;" parent="1" vertex="1">
          <mxGeometry x="30" y="230" width="120" height="60" as="geometry" />
        </mxCell>
        <mxCell id="uC1nnT6X22y7bVIkocbB-6" value="" style="rounded=0;whiteSpace=wrap;html=1;" parent="1" vertex="1">
          <mxGeometry x="354" y="230" width="120" height="60" as="geometry" />
        </mxCell>
        <mxCell id="uC1nnT6X22y7bVIkocbB-7" value="y moved label" style="edgeStyle=orthogonalEdgeStyle;rounded=0;orthogonalLoop=1;jettySize=auto;html=1;" parent="1" source="uC1nnT6X22y7bVIkocbB-8" target="uC1nnT6X22y7bVIkocbB-9" edge="1">
          <mxGeometry x="-0.0196" y="-60" relative="1" as="geometry">
            <mxPoint as="offset" />
          </mxGeometry>
        </mxCell>
        <mxCell id="uC1nnT6X22y7bVIkocbB-8" value="" style="rounded=0;whiteSpace=wrap;html=1;" parent="1" vertex="1">
          <mxGeometry x="30" y="370" width="120" height="60" as="geometry" />
        </mxCell>
        <mxCell id="uC1nnT6X22y7bVIkocbB-9" value="" style="rounded=0;whiteSpace=wrap;html=1;" parent="1" vertex="1">
          <mxGeometry x="354" y="370" width="120" height="60" as="geometry" />
        </mxCell>
      </root>
    </mxGraphModel>
  </diagram>
</mxfile>
